<svg xmlns="http://www.w3.org/2000/svg" width="500" height="108" viewBox="0 0 500 108" fill="none">
<path d="M235.342 25.2075V39.4543H211.272V105.316H194.35V39.3193L170.17 39.4543V25.2075H235.342Z" fill="#16171A"/>
<path d="M282.951 46.1317C285.941 47.4069 288.396 49.3553 290.316 51.9769C291.946 54.1996 292.942 56.4846 293.304 58.8334C293.668 61.1821 293.85 65.0167 293.85 70.334V105.298H277.966V69.0692C277.966 65.8633 277.422 63.2759 276.34 61.3082C274.931 58.5413 272.257 57.1563 268.322 57.1563C264.24 57.1563 261.142 58.5309 259.028 61.2815C256.915 64.0321 255.859 67.957 255.859 73.0579V105.298H240.303V25.116H255.859V53.4983C258.106 50.0419 260.705 47.6308 263.657 46.2666C266.609 44.901 269.717 44.2189 272.978 44.2189C276.638 44.2189 279.962 44.858 282.951 46.1317Z" fill="#16171A"/>
<path d="M319.645 60.4463C317.447 62.712 316.066 65.7814 315.502 69.6544H342.302C342.019 65.5248 340.637 62.3917 338.158 60.2535C335.679 58.1153 332.602 57.0462 328.932 57.0462C324.939 57.0462 321.843 58.1805 319.645 60.4463ZM342.918 47.0076C347.068 48.8671 350.496 51.8 353.199 55.8095C355.634 59.3431 357.216 63.443 357.938 68.1079C358.358 70.8422 358.528 74.779 358.451 79.9169H315.119C315.36 85.8852 317.436 90.0697 321.341 92.4718C323.717 93.9635 326.576 94.7079 329.919 94.7079C333.462 94.7079 336.341 93.8004 338.557 91.9795C339.764 90.9979 340.831 89.6322 341.758 87.8855H357.64C357.222 91.416 355.299 95 351.872 98.6388C346.543 104.425 339.082 107.318 329.489 107.318C321.571 107.318 314.586 104.877 308.533 99.997C302.48 95.1171 299.454 87.1767 299.454 76.1773C299.454 65.8718 302.187 57.9685 307.649 52.4688C313.113 46.9706 320.206 44.22 328.926 44.22C334.104 44.22 338.767 45.1497 342.918 47.0076Z" fill="#16171A"/>
<path d="M378.399 86.3215C378.728 89.0884 379.44 91.0532 380.537 92.2172C382.475 94.2916 386.057 95.3281 391.286 95.3281C394.358 95.3281 396.799 94.8743 398.608 93.9639C400.418 93.0549 401.323 91.6908 401.323 89.8699C401.323 88.1231 400.595 86.7945 399.136 85.8856C397.678 84.9766 392.254 83.4108 382.862 81.191C376.1 79.5184 371.338 77.4247 368.574 74.9143C365.807 72.4396 364.425 68.8734 364.425 64.2159C364.425 58.7221 366.585 54.0009 370.906 50.0522C375.227 46.1035 381.309 44.1284 389.149 44.1284C396.588 44.1284 402.65 45.6127 407.337 48.5768C412.023 51.5439 414.713 56.6655 415.405 63.9431H399.85C399.629 61.9428 399.066 60.3592 398.153 59.1937C396.437 57.0837 393.517 56.0279 389.395 56.0279C386.001 56.0279 383.584 56.5558 382.143 57.6115C380.702 58.6673 379.981 59.9039 379.981 61.323C379.981 63.1068 380.747 64.3983 382.281 65.1975C383.811 66.0353 389.226 67.4736 398.522 69.511C404.72 70.9656 409.366 73.1676 412.459 76.1154C415.515 79.0988 417.043 82.8295 417.043 87.3046C417.043 93.2003 414.846 98.0119 410.452 101.741C406.057 105.472 399.268 107.336 390.08 107.336C380.709 107.336 373.79 105.362 369.324 101.413C364.856 97.4663 362.623 92.4351 362.623 86.3215H378.399Z" fill="#16171A"/>
<path d="M423.458 45.8111H439.234V105.307H423.458V45.8111ZM439.234 14.355H423.458V0H439.234V14.355Z" fill="#16171A"/>
<path d="M461.104 86.3215C461.434 89.0884 462.146 91.0532 463.242 92.2172C465.181 94.2916 468.764 95.3281 473.992 95.3281C477.065 95.3281 479.505 94.8743 481.314 93.9639C483.125 93.0549 484.029 91.6908 484.029 89.8699C484.029 88.1231 483.3 86.7945 481.842 85.8856C480.385 84.9766 474.959 83.4108 465.568 81.191C458.807 79.5184 454.044 77.4247 451.279 74.9143C448.513 72.4396 447.13 68.8734 447.13 64.2159C447.13 58.7221 449.29 54.0009 453.613 50.0522C457.933 46.1035 464.014 44.1284 471.855 44.1284C479.295 44.1284 485.356 45.6127 490.043 48.5768C494.729 51.5439 497.417 56.6655 498.111 63.9431H482.555C482.336 61.9428 481.771 60.3592 480.859 59.1937C479.143 57.0837 476.224 56.0279 472.102 56.0279C468.707 56.0279 466.29 56.5558 464.849 57.6115C463.408 58.6673 462.687 59.9039 462.687 61.323C462.687 63.1068 463.452 64.3983 464.986 65.1975C466.517 66.0353 471.933 67.4736 481.228 69.511C487.425 70.9656 492.07 73.1676 495.165 76.1154C498.22 79.0988 499.748 82.8295 499.748 87.3046C499.748 93.2003 497.552 98.0119 493.157 101.741C488.764 105.472 481.974 107.336 472.785 107.336C463.415 107.336 456.497 105.362 452.03 101.413C447.563 97.4663 445.33 92.4351 445.33 86.3215H461.104Z" fill="#16171A"/>
<path d="M48.3601 39.3499L0 39.4848V25.238H130.344V39.4848H82.2005" fill="#E61414"/>
<path d="M60.9689 105.176L48.8796 105.311V91.0645H81.4642V105.311H69.4298" fill="#E61414"/>
<path d="M56.7667 72.2478L32.5851 72.3828V58.136H97.7587V72.3828H73.6869" fill="#E61414"/>
</svg>